<?xml version="1.0" encoding="utf-8"?>
<!-- Generator: Adobe Illustrator 22.0.1, SVG Export Plug-In . SVG Version: 6.00 Build 0)  -->
<svg version="1.1" id="Layer_1" xmlns="http://www.w3.org/2000/svg" xmlns:xlink="http://www.w3.org/1999/xlink" x="0px" y="0px"
	 viewBox="0 0 152 19.9" style="enable-background:new 0 0 152 19.9;" xml:space="preserve">
<style type="text/css">
	.st0{fill:url(#SVGID_1_);}
	.st1{fill:url(#SVGID_2_);}
	.st2{fill:url(#SVGID_3_);}
	.st3{fill:url(#SVGID_4_);}
	.st4{fill:url(#SVGID_5_);}
	.st5{fill:url(#SVGID_6_);}
	.st6{fill:url(#SVGID_7_);}
	.st7{fill:url(#SVGID_8_);}
	.st8{fill:url(#SVGID_9_);}
	.st9{fill:url(#SVGID_10_);}
	.st10{fill:url(#SVGID_11_);}
	.st11{fill:url(#SVGID_12_);}
	.st12{fill:url(#SVGID_13_);}
	.st13{fill:url(#SVGID_14_);}
	.st14{fill:url(#SVGID_15_);}
	.st15{fill:url(#SVGID_16_);}
</style>
<g>
	<linearGradient id="SVGID_1_" gradientUnits="userSpaceOnUse" x1="0.6289" y1="7.7419" x2="63.8" y2="7.7419">
		<stop  offset="0" style="stop-color:#F4B31A"/>
		<stop  offset="1" style="stop-color:#9B6827"/>
	</linearGradient>
	<rect x="0.6" y="6.6" class="st0" width="63.2" height="2.3"/>
	<linearGradient id="SVGID_2_" gradientUnits="userSpaceOnUse" x1="151.0964" y1="7.7419" x2="88.5" y2="7.7419">
		<stop  offset="0" style="stop-color:#E6E7E8"/>
		<stop  offset="1" style="stop-color:#9DA1A6"/>
	</linearGradient>
	<rect x="88.5" y="6.6" class="st1" width="62.6" height="2.3"/>
	<g>
		<linearGradient id="SVGID_3_" gradientUnits="userSpaceOnUse" x1="76.024" y1="14.0272" x2="76.024" y2="14.9169">
			<stop  offset="0" style="stop-color:#F4B31A"/>
			<stop  offset="1" style="stop-color:#9B6827"/>
		</linearGradient>
		<path class="st2" d="M76.8,14c-0.2,0.1-0.4,0.2-0.7,0.2c-0.2,0-0.5-0.1-0.7-0.2h-1.2v0.9h1.3c0.2-0.1,0.3-0.1,0.5-0.1
			c0.2,0,0.4,0,0.5,0.1h1.1V14H76.8z"/>
		<linearGradient id="SVGID_4_" gradientUnits="userSpaceOnUse" x1="75.9844" y1="17.5825" x2="75.9844" y2="18.6932">
			<stop  offset="0" style="stop-color:#E6E7E8"/>
			<stop  offset="1" style="stop-color:#9DA1A6"/>
		</linearGradient>
		<path class="st3" d="M76.8,17.6c-0.2,0.1-0.4,0.2-0.7,0.2c-0.3,0-0.5-0.1-0.7-0.2h-1.3v1.1h1.4c0.2-0.1,0.4-0.1,0.6-0.1
			s0.4,0.1,0.6,0.1h1.2v-1.1H76.8z"/>
		<linearGradient id="SVGID_5_" gradientUnits="userSpaceOnUse" x1="76.8381" y1="2.1186" x2="80.1529" y2="2.1186">
			<stop  offset="0" style="stop-color:#F4B31A"/>
			<stop  offset="1" style="stop-color:#9B6827"/>
		</linearGradient>
		<circle class="st4" cx="78.5" cy="2.1" r="1.7"/>
		<linearGradient id="SVGID_6_" gradientUnits="userSpaceOnUse" x1="81.0598" y1="2.1186" x2="84.3746" y2="2.1186">
			<stop  offset="0" style="stop-color:#E6E7E8"/>
			<stop  offset="1" style="stop-color:#9DA1A6"/>
		</linearGradient>
		<circle class="st5" cx="82.7" cy="2.1" r="1.7"/>
		<linearGradient id="SVGID_7_" gradientUnits="userSpaceOnUse" x1="82.7132" y1="6.7935" x2="75.2496" y2="11.1026">
			<stop  offset="0" style="stop-color:#F4B31A"/>
			<stop  offset="1" style="stop-color:#9B6827"/>
		</linearGradient>
		<path class="st6" d="M80,4.9c-1.4,0-3.7,0-3.7,0V10c0.2,1,1.3,0.7,1.3,0s0-3.8,0-3.8s1.2,0,2.3,0c0.6,0,1.6,0.6,1.7,1.9
			c0.1,1.3-1.7,3.5-3.9,5.6v1.5c1.7-1.4,4.7-4.5,5.2-6.7C83.3,6.4,81.3,4.9,80,4.9z"/>
		<linearGradient id="SVGID_8_" gradientUnits="userSpaceOnUse" x1="82.1884" y1="4.8878" x2="82.1884" y2="19.2141">
			<stop  offset="0" style="stop-color:#E6E7E8"/>
			<stop  offset="1" style="stop-color:#9DA1A6"/>
		</linearGradient>
		<path class="st7" d="M84.2,4.9c-1.7,0-3,0-3,0s1.1,0.5,1.5,1.3c1.5,0,2.9,0.1,2.7,2.3c-0.2,1.7-6.3,7.8-7.8,8.8v1.9
			c1.2-0.7,4.2-3.5,7.8-8C88.5,7.1,85.8,5.1,84.2,4.9z"/>
		
			<linearGradient id="SVGID_9_" gradientUnits="userSpaceOnUse" x1="5.8588" y1="415.1211" x2="7.8526" y2="415.1211" gradientTransform="matrix(0.9974 7.265636e-02 -7.265636e-02 0.9974 100.64 -399.9731)">
			<stop  offset="0" style="stop-color:#F4B31A"/>
			<stop  offset="1" style="stop-color:#9B6827"/>
		</linearGradient>
		<path class="st8" d="M77,15.4l-0.6-0.7c-0.1-0.2-0.1-0.4,0-0.5l0.7-0.6c0.2-0.1,0.4-0.1,0.5,0l0.6,0.7c0.1,0.2,0.1,0.4,0,0.5
			l-0.7,0.6C77.4,15.6,77.1,15.6,77,15.4z"/>
		
			<linearGradient id="SVGID_10_" gradientUnits="userSpaceOnUse" x1="6.0166" y1="418.7683" x2="8.3697" y2="418.7683" gradientTransform="matrix(0.9974 7.265636e-02 -7.265636e-02 0.9974 100.64 -399.9731)">
			<stop  offset="0" style="stop-color:#E6E7E8"/>
			<stop  offset="1" style="stop-color:#9DA1A6"/>
		</linearGradient>
		<path class="st9" d="M77,19.2l-0.7-0.8c-0.2-0.2-0.1-0.5,0-0.6l0.8-0.7c0.2-0.2,0.5-0.1,0.6,0l0.7,0.8c0.2,0.2,0.1,0.5,0,0.6
			l-0.8,0.7C77.4,19.4,77.2,19.4,77,19.2z"/>
		
			<linearGradient id="SVGID_11_" gradientUnits="userSpaceOnUse" x1="11695.4805" y1="2.1186" x2="11698.7949" y2="2.1186" gradientTransform="matrix(-1 0 0 1 11770.8418 0)">
			<stop  offset="0" style="stop-color:#E6E7E8"/>
			<stop  offset="1" style="stop-color:#9DA1A6"/>
		</linearGradient>
		<circle class="st10" cx="73.7" cy="2.1" r="1.7"/>
		<linearGradient id="SVGID_12_" gradientUnits="userSpaceOnUse" x1="67.8249" y1="2.1186" x2="71.1397" y2="2.1186">
			<stop  offset="0" style="stop-color:#F4B31A"/>
			<stop  offset="1" style="stop-color:#9B6827"/>
		</linearGradient>
		<circle class="st11" cx="69.5" cy="2.1" r="1.7"/>
		
			<linearGradient id="SVGID_13_" gradientUnits="userSpaceOnUse" x1="11701.3555" y1="6.7935" x2="11693.8916" y2="11.1026" gradientTransform="matrix(-1 0 0 1 11770.8418 0)">
			<stop  offset="0" style="stop-color:#E6E7E8"/>
			<stop  offset="1" style="stop-color:#9DA1A6"/>
		</linearGradient>
		<path class="st12" d="M72.2,4.9c1.4,0,3.7,0,3.7,0V10c-0.2,1-1.3,0.7-1.3,0s0-3.8,0-3.8s-1.2,0-2.3,0c-0.6,0-1.6,0.6-1.7,1.9
			c-0.1,1.3,1.7,3.5,3.9,5.6v1.5c-1.7-1.4-4.7-4.5-5.2-6.7C68.9,6.4,70.9,4.9,72.2,4.9z"/>
		
			<linearGradient id="SVGID_14_" gradientUnits="userSpaceOnUse" x1="11700.8301" y1="4.8878" x2="11700.8301" y2="19.2141" gradientTransform="matrix(-1 0 0 1 11770.8418 0)">
			<stop  offset="0" style="stop-color:#F4B31A"/>
			<stop  offset="1" style="stop-color:#9B6827"/>
		</linearGradient>
		<path class="st13" d="M68,4.9c1.7,0,3,0,3,0s-1.1,0.5-1.5,1.3c-1.5,0-2.9,0.1-2.7,2.3c0.2,1.7,6.3,7.8,7.8,8.8v1.9
			c-1.2-0.7-4.2-3.5-7.8-8C63.7,7.1,66.4,5.1,68,4.9z"/>
		
			<linearGradient id="SVGID_15_" gradientUnits="userSpaceOnUse" x1="11593.793" y1="-429.0471" x2="11595.7871" y2="-429.0471" gradientTransform="matrix(-0.9974 7.265636e-02 7.265636e-02 0.9974 11670.2012 -399.9731)">
			<stop  offset="0" style="stop-color:#E6E7E8"/>
			<stop  offset="1" style="stop-color:#9DA1A6"/>
		</linearGradient>
		<path class="st14" d="M75.2,15.4l0.6-0.7c0.1-0.2,0.1-0.4,0-0.5l-0.7-0.6c-0.2-0.1-0.4-0.1-0.5,0L74,14.4c-0.1,0.2-0.1,0.4,0,0.5
			l0.7,0.6C74.8,15.6,75.1,15.6,75.2,15.4z"/>
		
			<linearGradient id="SVGID_16_" gradientUnits="userSpaceOnUse" x1="11593.9541" y1="-425.4" x2="11596.3008" y2="-425.4" gradientTransform="matrix(-0.9974 7.265636e-02 7.265636e-02 0.9974 11670.2012 -399.9731)">
			<stop  offset="0" style="stop-color:#F4B31A"/>
			<stop  offset="1" style="stop-color:#9B6827"/>
		</linearGradient>
		<path class="st15" d="M75.2,19.2l0.7-0.8c0.2-0.2,0.1-0.5,0-0.6L75,17.1c-0.2-0.2-0.5-0.1-0.6,0L73.7,18c-0.2,0.2-0.1,0.5,0,0.6
			l0.8,0.7C74.8,19.4,75,19.4,75.2,19.2z"/>
	</g>
</g>
</svg>
